<svg xmlns="http://www.w3.org/2000/svg" xmlns:xlink="http://www.w3.org/1999/xlink" x="0" y="0" width="348" height="146.1999969482422" style="
        width:348px;
        height:146.1999969482422px;
        background: #FFF;
        fill: none;
">
        
        
        <svg xmlns="http://www.w3.org/2000/svg" class="role-diagram-draw-area"><g class="shapes-region" style="stroke: black; fill: none;"><g class="composite-shape"><path class="real" d=" M25,54 L56.4,54 L56.4,88.9 L25,88.9 Z" style="stroke-width: 1; stroke: rgb(0, 0, 0); fill: rgb(162, 162, 162); fill-opacity: 1;"/></g><g class="composite-shape"><path class="real" d=" M40.7,30.55 L56.4,54 L25,54 Z" style="stroke-width: 1; stroke: rgb(0, 0, 0); fill: none; fill-opacity: 1;"/></g><g class="composite-shape"><path class="real" d=" M161.9,54.6 L193.3,54.6 L186.1,89.5 L154.7,89.5 Z" style="stroke-width: 1; stroke: rgb(0, 0, 0); fill: rgb(162, 162, 162); fill-opacity: 1;"/></g><g class="composite-shape"><path class="real" d=" M186.2,25.15 L193.3,54.6 L161.9,54.6 Z" style="stroke-width: 1; stroke: rgb(0, 0, 0); fill: none; fill-opacity: 1;"/></g><g class="composite-shape"><path class="real" d=" M226.4,55 L257.8,55 L257.8,89.9 L226.4,89.9 Z" style="stroke-width: 1; stroke: rgb(0, 0, 0); fill: rgb(38, 100, 35); fill-opacity: 1;"/></g><g class="composite-shape"><path class="real" d=" M242.1,31.55 L257.8,55 L226.4,55 Z" style="stroke-width: 1; stroke: rgb(0, 0, 0); fill: none; fill-opacity: 1;"/></g><g class="composite-shape"><path class="real" d=" M286.3,56.75 L325.8,56.75 L325.8,100.65 L286.3,100.65 Z" style="stroke-width: 1; stroke: rgb(0, 0, 0); fill: rgb(162, 162, 162); fill-opacity: 1;"/></g><g class="composite-shape"><path class="real" d=" M306.05,27.25 L325.8,56.75 L286.3,56.75 Z" style="stroke-width: 1; stroke: rgb(0, 0, 0); fill: none; fill-opacity: 1;"/></g><g class="composite-shape"><path class="real" d=" M10.8,13.8 L70.2,13.8 L70.2,110.3 L10.8,110.3 Z" style="stroke-width: 1; stroke: rgb(0, 0, 0); fill: none; fill-opacity: 1;"/></g><g class="composite-shape"><path class="real" d=" M141,14 L200.4,14 L200.4,110.5 L141,110.5 Z" style="stroke-width: 1; stroke: rgb(0, 0, 0); fill: none; fill-opacity: 1;"/></g><g class="composite-shape"><path class="real" d=" M210,13.6 L269.4,13.6 L269.4,110.1 L210,110.1 Z" style="stroke-width: 1; stroke: rgb(0, 0, 0); fill: none; fill-opacity: 1;"/></g><g class="composite-shape"><path class="real" d=" M275.55,13.65 L334.95,13.65 L334.95,110.15 L275.55,110.15 Z" style="stroke-width: 1; stroke: rgb(0, 0, 0); fill: none; fill-opacity: 1;"/></g><g/></g><g/><g/><g/></svg>
        <svg xmlns="http://www.w3.org/2000/svg" xmlns:xlink="http://www.w3.org/1999/xlink" width="346" height="144.1999969482422" style="width:346px;height:144.1999969482422px;font-family:Asana-Math, Asana;background:#FFF;"><g><g><g><g transform="matrix(1,0,0,1,16.79998779296875,135.60000610351562)"><path transform="matrix(0.015,0,0,-0.015,0,0)" d="M66 347C66 155 197 -22 394 -22C478 -22 518 -9 588 33L582 103C532 71 498 42 395 42C258 42 156 178 156 347C156 515 258 652 392 652C471 652 513 629 562 599L577 682C488 715 443 716 379 716C236 716 66 574 66 347ZM669 221C669 85 774 -11 888 -11C1002 -11 1108 84 1108 220C1108 345 1016 461 888 461C770 461 669 357 669 221ZM747 231C747 352 824 399 888 399C952 399 1029 353 1029 231C1029 106 955 53 888 53C822 53 747 105 747 231ZM1219 0L1297 0L1297 240C1297 314 1322 394 1399 394C1497 394 1497 319 1497 281L1497 0L1575 0L1575 288C1575 358 1566 455 1438 455C1350 455 1306 398 1292 380L1292 450L1219 450ZM1674 386L1758 386L1758 117C1758 7 1807 -11 1840 -11C1885 -11 1936 -1 1988 27L1972 86C1958 76 1927 53 1884 53C1832 53 1830 112 1830 140L1830 386L1971 386L1971 445L1830 445L1830 571L1760 571L1760 445L1674 445ZM2051 226C2051 102 2138 -11 2269 -11C2332 -11 2384 11 2427 40L2421 106C2377 74 2332 51 2269 51C2193 51 2125 117 2121 220L2431 220L2431 249C2422 420 2324 461 2253 461C2147 461 2051 360 2051 226ZM2126 275C2137 324 2177 399 2253 399C2282 399 2357 386 2374 275ZM2541 0L2619 0L2619 240C2619 314 2644 394 2721 394C2819 394 2819 319 2819 281L2819 0L2897 0L2897 288C2897 358 2888 455 2760 455C2672 455 2628 398 2614 380L2614 450L2541 450ZM2996 386L3080 386L3080 117C3080 7 3129 -11 3162 -11C3207 -11 3258 -1 3310 27L3294 86C3280 76 3249 53 3206 53C3154 53 3152 112 3152 140L3152 386L3293 386L3293 445L3152 445L3152 571L3082 571L3082 445L2996 445Z" stroke="rgb(0,0,0)" stroke-opacity="1" stroke-width="8" fill="rgb(0,0,0)" fill-opacity="1"></path></g></g></g></g><g><g><g><g transform="matrix(1,0,0,1,184.20001220703125,136)"><path transform="matrix(0.015,0,0,-0.015,0,0)" d="M66 347C66 155 197 -22 394 -22C478 -22 518 -9 588 33L582 103C532 71 498 42 395 42C258 42 156 178 156 347C156 515 258 652 392 652C471 652 513 629 562 599L577 682C488 715 443 716 379 716C236 716 66 574 66 347ZM669 221C669 85 774 -11 888 -11C1002 -11 1108 84 1108 220C1108 345 1016 461 888 461C770 461 669 357 669 221ZM747 231C747 352 824 399 888 399C952 399 1029 353 1029 231C1029 106 955 53 888 53C822 53 747 105 747 231ZM1219 0L1297 0L1297 240C1297 314 1322 394 1399 394C1497 394 1497 319 1497 281L1497 0L1575 0L1575 240C1575 314 1600 394 1677 394C1775 394 1774 281 1774 281L1774 0L1853 0L1853 288C1853 346 1850 455 1716 455C1625 455 1580 394 1565 374C1551 412 1521 455 1438 455C1350 455 1306 398 1292 380L1292 450L1219 450ZM2014 0L2092 0L2092 46C2126 15 2167 -11 2226 -11C2325 -11 2413 86 2413 224C2413 344 2348 455 2249 455C2218 455 2153 448 2089 397L2089 722L2014 722ZM2092 133L2092 320C2092 357 2147 394 2199 394C2253 394 2334 356 2334 223C2334 92 2248 50 2191 50C2162 50 2132 62 2109 90C2096 109 2092 107 2092 133ZM2531 0L2606 0L2606 445L2531 445ZM2524 590L2614 590L2614 679L2524 679ZM2769 0L2847 0L2847 240C2847 314 2872 394 2949 394C3047 394 3047 319 3047 281L3047 0L3125 0L3125 288C3125 358 3116 455 2988 455C2900 455 2856 398 2842 380L2842 450L2769 450ZM3240 226C3240 102 3327 -11 3458 -11C3521 -11 3573 11 3616 40L3610 106C3566 74 3521 51 3458 51C3382 51 3314 117 3310 220L3620 220L3620 249C3611 420 3513 461 3442 461C3336 461 3240 360 3240 226ZM3315 275C3326 324 3366 399 3442 399C3471 399 3546 386 3563 275ZM3685 221C3685 102 3755 -11 3857 -11C3923 -11 3971 19 4005 52L4005 0L4084 0L4084 722L4008 722L4008 401C3973 429 3926 456 3863 456C3764 456 3685 353 3685 221ZM3763 222C3763 353 3850 394 3908 394L3910 394C3921 394 3953 393 3984 364C4002 347 4005 341 4005 325L4005 134C4005 103 3958 51 3898 51C3844 51 3763 90 3763 222ZM4581 0L4656 0L4656 445L4581 445ZM4574 590L4664 590L4664 679L4574 679ZM4819 0L4897 0L4897 240C4897 314 4922 394 4999 394C5097 394 5097 319 5097 281L5097 0L5175 0L5175 240C5175 314 5200 394 5277 394C5375 394 5374 281 5374 281L5374 0L5453 0L5453 288C5453 346 5450 455 5316 455C5225 455 5180 394 5165 374C5151 412 5121 455 5038 455C4950 455 4906 398 4892 380L4892 450L4819 450ZM5577 113C5577 67 5607 -11 5691 -11C5801 -11 5856 34 5857 35L5857 0L5933 0L5933 305C5928 389 5862 461 5767 461C5704 461 5658 445 5610 417L5616 350C5649 373 5691 401 5766 401C5779 401 5805 400 5829 371C5854 341 5854 307 5855 279L5855 245C5752 244 5577 219 5577 113ZM5650 114C5650 177 5783 192 5855 193L5855 130C5855 65 5786 51 5743 51C5689 51 5650 78 5650 114ZM6040 -71C6040 -148 6139 -206 6262 -206C6384 -206 6484 -148 6484 -70C6484 -58 6482 -45 6479 -33C6451 67 6329 69 6263 69L6188 69C6140 69 6132 103 6132 122C6132 129 6133 139 6143 159C6165 145 6190 129 6234 129C6327 129 6394 207 6394 292C6394 335 6381 364 6355 399L6364 391C6382 392 6413 395 6439 395C6459 395 6478 394 6498 392L6487 455C6433 455 6380 445 6330 424L6332 422C6299 445 6271 455 6234 455C6152 455 6075 389 6075 292C6075 272 6078 232 6108 193L6108 192C6090 168 6079 141 6079 108C6079 76 6088 55 6104 32C6065 9 6040 -30 6040 -71ZM6110 -71C6110 -42 6132 -8 6173 -4L6202 -3L6265 -3C6373 -3 6414 -31 6414 -72C6414 -118 6342 -149 6261 -149C6206 -149 6110 -127 6110 -71ZM6145 292C6145 377 6198 398 6234 398C6288 398 6324 358 6324 293C6324 208 6271 187 6235 187C6181 187 6145 227 6145 292ZM6547 226C6547 102 6634 -11 6765 -11C6828 -11 6880 11 6923 40L6917 106C6873 74 6828 51 6765 51C6689 51 6621 117 6617 220L6927 220L6927 249C6918 420 6820 461 6749 461C6643 461 6547 360 6547 226ZM6622 275C6633 324 6673 399 6749 399C6778 399 6853 386 6870 275ZM6984 34C7059 -7 7120 -11 7154 -11C7288 -11 7317 72 7317 127C7317 192 7271 234 7230 252C7168 280 7061 267 7061 340C7061 365 7076 401 7145 401C7217 401 7249 383 7289 364L7300 430C7245 453 7210 461 7154 461C7018 461 6990 382 6990 329C6990 259 7050 220 7094 206C7125 196 7168 191 7190 184C7210 178 7246 158 7246 120C7246 93 7228 52 7153 52C7072 52 7024 86 6996 102Z" stroke="rgb(0,0,0)" stroke-opacity="1" stroke-width="8" fill="rgb(0,0,0)" fill-opacity="1"></path></g></g></g></g></svg>
</svg>
