<svg xmlns="http://www.w3.org/2000/svg" xmlns:xlink="http://www.w3.org/1999/xlink" x="0" y="0" width="321" height="136" style="
        width:321px;
        height:136px;
        background: #FFF;
        fill: none;
">
        
        
        <svg xmlns="http://www.w3.org/2000/svg" class="role-diagram-draw-area"><g class="shapes-region" style="stroke: black; fill: none;"><g class="composite-shape"><path class="real" d=" M43.8,25.4 L132.96,25.4 L132.96,115.74 L43.8,115.74 Z" style="stroke-width: 1; stroke: rgb(0, 0, 0); fill: rgb(225, 225, 225); fill-opacity: 1;"/></g><g class="arrow-line"><path class="connection real" stroke-dasharray="" d="  M57.4,61 L81.9,36.5" style="stroke: rgb(0, 0, 0); stroke-width: 3; fill: none; fill-opacity: 1;"/></g><g class="arrow-line"><path class="connection real" stroke-dasharray="" d="  M58.6,102.2 L83.1,77.7" style="stroke: rgb(43, 168, 37); stroke-opacity: 1; stroke-width: 3; fill: none; fill-opacity: 1;"/></g><g class="composite-shape"><path class="real" d=" M95.5,48.95 C95.5,43.01 100.31,38.2 106.25,38.2 C112.19,38.2 117,43.01 117,48.95 C117,54.89 112.19,59.7 106.25,59.7 C100.31,59.7 95.5,54.89 95.5,48.95 Z" style="stroke-width: 3; stroke: rgb(0, 0, 0); fill: none; fill-opacity: 1;"/></g><g class="composite-shape"><path class="real" d=" M94.7,90.95 C94.7,85.01 99.51,80.2 105.45,80.2 C111.39,80.2 116.2,85.01 116.2,90.95 C116.2,96.89 111.39,101.7 105.45,101.7 C99.51,101.7 94.7,96.89 94.7,90.95 Z" style="stroke-width: 3; stroke: rgb(43, 168, 37); stroke-opacity: 1; fill: none; fill-opacity: 1;"/></g><g class="arrow-line"><path class="connection real" stroke-dasharray="" d="  M151,72 L215.8,72" style="stroke: rgb(0, 0, 0); stroke-width: 1; fill: none; fill-opacity: 1;"/><g stroke="#000" transform="matrix(-1,1.2246467991473532e-16,-1.2246467991473532e-16,-1,217.79998779296875,72)" style="stroke: rgb(0, 0, 0); stroke-width: 1;"><path d=" M10.93,-3.29 Q4.96,-0.45 0,0 Q4.96,0.45 10.93,3.29"/></g></g><g class="composite-shape"><path class="real" d=" M238,45 L288,45 L288,95 L238,95 Z" style="stroke-width: 1; stroke: rgb(0, 0, 0); fill: none; fill-opacity: 1;"/></g><g class="composite-shape"><path class="real" d=" M234,49 L284,49 L284,99 L234,99 Z" style="stroke-width: 1; stroke: rgb(0, 0, 0); stroke-opacity: 1; fill: rgb(189, 189, 189); fill-opacity: 1;"/></g><g/></g><g/><g/><g/></svg>
        <svg xmlns="http://www.w3.org/2000/svg" xmlns:xlink="http://www.w3.org/1999/xlink" width="319" height="134" style="width:319px;height:134px;font-family:Asana-Math, Asana;background:#FFF;"><g><g><g><g transform="matrix(1,0,0,1,233,29.800003051757812)"><path transform="matrix(0.015,0,0,-0.015,0,0)" d="M66 347C66 155 197 -22 394 -22C478 -22 518 -9 588 33L582 103C532 71 498 42 395 42C258 42 156 178 156 347C156 515 258 652 392 652C471 652 513 629 562 599L577 682C488 715 443 716 379 716C236 716 66 574 66 347ZM669 221C669 85 774 -11 888 -11C1002 -11 1108 84 1108 220C1108 345 1016 461 888 461C770 461 669 357 669 221ZM747 231C747 352 824 399 888 399C952 399 1029 353 1029 231C1029 106 955 53 888 53C822 53 747 105 747 231ZM1219 0L1297 0L1297 240C1297 314 1322 394 1399 394C1497 394 1497 319 1497 281L1497 0L1575 0L1575 288C1575 358 1566 455 1438 455C1350 455 1306 398 1292 380L1292 450L1219 450ZM1670 445L1842 0L1930 0L2102 445L2028 445C1931 193 1894 90 1888 50C1883 81 1877 97 1840 201L1747 445ZM2212 0L2290 0L2290 624L2329 544L2603 0L2728 0L2728 694L2650 694L2650 70L2611 150L2337 694L2212 694ZM2859 226C2859 102 2946 -11 3077 -11C3140 -11 3192 11 3235 40L3229 106C3185 74 3140 51 3077 51C3001 51 2933 117 2929 220L3239 220L3239 249C3230 420 3132 461 3061 461C2955 461 2859 360 2859 226ZM2934 275C2945 324 2985 399 3061 399C3090 399 3165 386 3182 275ZM3287 386L3371 386L3371 117C3371 7 3420 -11 3453 -11C3498 -11 3549 -1 3601 27L3585 86C3571 76 3540 53 3497 53C3445 53 3443 112 3443 140L3443 386L3584 386L3584 445L3443 445L3443 571L3373 571L3373 445L3287 445Z" stroke="rgb(0,0,0)" stroke-opacity="1" stroke-width="8" fill="rgb(0,0,0)" fill-opacity="1"></path></g></g></g></g><g><g><g><g transform="matrix(1,0,0,1,54,16.800003051757812)"><path transform="matrix(0.015,0,0,-0.015,0,0)" d="M44 47C107 7 181 -22 273 -22C410 -22 499 81 499 189C499 289 429 355 365 382C329 397 244 412 215 424C171 442 135 482 135 531C135 590 189 649 280 649C362 649 404 621 450 585L464 668C412 696 362 716 281 716C140 716 55 616 55 519C55 415 138 351 209 332C296 309 309 308 333 299C384 278 419 232 419 179C419 114 364 47 273 47C174 47 107 92 59 130ZM573 386L657 386L657 117C657 7 706 -11 739 -11C784 -11 835 -1 887 27L871 86C857 76 826 53 783 53C731 53 729 112 729 140L729 386L870 386L870 445L729 445L729 571L659 571L659 445L573 445ZM902 445L1089 18C1093 10 1094 6 1094 1C1094 -3 1093 -8 1090 -15C1047 -119 1039 -149 997 -149C980 -149 958 -143 924 -132L929 -197C953 -203 983 -205 1002 -205C1048 -205 1077 -182 1117 -90L1334 445L1259 445C1193 281 1128 118 1126 50C1117 107 1117 134 981 445ZM1430 0L1505 0L1505 722L1430 722ZM1622 226C1622 102 1709 -11 1840 -11C1903 -11 1955 11 1998 40L1992 106C1948 74 1903 51 1840 51C1764 51 1696 117 1692 220L2002 220L2002 249C1993 420 1895 461 1824 461C1718 461 1622 360 1622 226ZM1697 275C1708 324 1748 399 1824 399C1853 399 1928 386 1945 275ZM2446 0L2521 0L2521 445L2446 445ZM2439 590L2529 590L2529 679L2439 679ZM2684 0L2762 0L2762 240C2762 314 2787 394 2864 394C2962 394 2962 319 2962 281L2962 0L3040 0L3040 240C3040 314 3065 394 3142 394C3240 394 3239 281 3239 281L3239 0L3318 0L3318 288C3318 346 3315 455 3181 455C3090 455 3045 394 3030 374C3016 412 2986 455 2903 455C2815 455 2771 398 2757 380L2757 450L2684 450ZM3442 113C3442 67 3472 -11 3556 -11C3666 -11 3721 34 3722 35L3722 0L3798 0L3798 305C3793 389 3727 461 3632 461C3569 461 3523 445 3475 417L3481 350C3514 373 3556 401 3631 401C3644 401 3670 400 3694 371C3719 341 3719 307 3720 279L3720 245C3617 244 3442 219 3442 113ZM3515 114C3515 177 3648 192 3720 193L3720 130C3720 65 3651 51 3608 51C3554 51 3515 78 3515 114ZM3905 -71C3905 -148 4004 -206 4127 -206C4249 -206 4349 -148 4349 -70C4349 -58 4347 -45 4344 -33C4316 67 4194 69 4128 69L4053 69C4005 69 3997 103 3997 122C3997 129 3998 139 4008 159C4030 145 4055 129 4099 129C4192 129 4259 207 4259 292C4259 335 4246 364 4220 399L4229 391C4247 392 4278 395 4304 395C4324 395 4343 394 4363 392L4352 455C4298 455 4245 445 4195 424L4197 422C4164 445 4136 455 4099 455C4017 455 3940 389 3940 292C3940 272 3943 232 3973 193L3973 192C3955 168 3944 141 3944 108C3944 76 3953 55 3969 32C3930 9 3905 -30 3905 -71ZM3975 -71C3975 -42 3997 -8 4038 -4L4067 -3L4130 -3C4238 -3 4279 -31 4279 -72C4279 -118 4207 -149 4126 -149C4071 -149 3975 -127 3975 -71ZM4010 292C4010 377 4063 398 4099 398C4153 398 4189 358 4189 293C4189 208 4136 187 4100 187C4046 187 4010 227 4010 292ZM4412 226C4412 102 4499 -11 4630 -11C4693 -11 4745 11 4788 40L4782 106C4738 74 4693 51 4630 51C4554 51 4486 117 4482 220L4792 220L4792 249C4783 420 4685 461 4614 461C4508 461 4412 360 4412 226ZM4487 275C4498 324 4538 399 4614 399C4643 399 4718 386 4735 275Z" stroke="rgb(0,0,0)" stroke-opacity="1" stroke-width="8" fill="rgb(0,0,0)" fill-opacity="1"></path></g></g></g></g></svg>
</svg>
