<svg xmlns="http://www.w3.org/2000/svg" xmlns:xlink="http://www.w3.org/1999/xlink" x="0" y="0" width="544" height="136" style="
        width:544px;
        height:136px;
        background: #FFF;
        fill: none;
">
        
        
        <svg xmlns="http://www.w3.org/2000/svg" class="role-diagram-draw-area"><g class="shapes-region" style="stroke: black; fill: none;"><g class="composite-shape"><path class="real" d=" M43.8,25.4 L132.96,25.4 L132.96,115.74 L43.8,115.74 Z" style="stroke-width: 1; stroke: rgb(0, 0, 0); fill: rgb(225, 225, 225); fill-opacity: 1;"/></g><g class="arrow-line"><path class="connection real" stroke-dasharray="" d="  M57.4,61 L81.9,36.5" style="stroke: rgb(0, 0, 0); stroke-width: 3; fill: none; fill-opacity: 1;"/></g><g class="arrow-line"><path class="connection real" stroke-dasharray="" d="  M58.6,102.2 L83.1,77.7" style="stroke: rgb(43, 168, 37); stroke-opacity: 1; stroke-width: 3; fill: none; fill-opacity: 1;"/></g><g class="composite-shape"><path class="real" d=" M95.5,48.95 C95.5,43.01 100.31,38.2 106.25,38.2 C112.19,38.2 117,43.01 117,48.95 C117,54.89 112.19,59.7 106.25,59.7 C100.31,59.7 95.5,54.89 95.5,48.95 Z" style="stroke-width: 3; stroke: rgb(0, 0, 0); fill: none; fill-opacity: 1;"/></g><g class="composite-shape"><path class="real" d=" M94.7,90.95 C94.7,85.01 99.51,80.2 105.45,80.2 C111.39,80.2 116.2,85.01 116.2,90.95 C116.2,96.89 111.39,101.7 105.45,101.7 C99.51,101.7 94.7,96.89 94.7,90.95 Z" style="stroke-width: 3; stroke: rgb(43, 168, 37); stroke-opacity: 1; fill: none; fill-opacity: 1;"/></g><g class="arrow-line"><path class="connection real" stroke-dasharray="" d="  M151,72 L215.8,72" style="stroke: rgb(0, 0, 0); stroke-width: 1; fill: none; fill-opacity: 1;"/><g stroke="#000" transform="matrix(-1,1.2246467991473532e-16,-1.2246467991473532e-16,-1,217.79998779296875,72)" style="stroke: rgb(0, 0, 0); stroke-width: 1;"><path d=" M10.93,-3.29 Q4.96,-0.45 0,0 Q4.96,0.45 10.93,3.29"/></g></g><g/></g><g/><g/><g/></svg>
        <svg xmlns="http://www.w3.org/2000/svg" xmlns:xlink="http://www.w3.org/1999/xlink" width="542" height="134" style="width:542px;height:134px;font-family:Asana-Math, Asana;background:#FFF;"><g><g><g><g><g><g><g transform="matrix(1,0,0,1,258.3499755859375,66.99999237060547)"><path transform="matrix(0.017,0,0,-0.017,0,0)" d="M418 -3L418 27L366 30C311 33 301 44 301 96L301 700L60 598L67 548L217 614L217 96C217 44 206 33 152 30L96 27L96 -3C250 0 250 0 261 0C292 0 402 -3 418 -3Z" stroke="rgb(0,0,0)" stroke-opacity="1" stroke-width="8" fill="rgb(0,0,0)" fill-opacity="1"></path></g></g></g></g><g><g><g><g transform="matrix(1,0,0,1,278.04998779296875,66.99999237060547)"><path transform="matrix(0.017,0,0,-0.017,0,0)" d="M263 689C108 689 29 566 29 324C29 207 50 106 85 57C120 8 176 -20 238 -20C389 -20 465 110 465 366C465 585 400 689 263 689ZM245 654C342 654 381 556 381 316C381 103 343 15 251 15C154 15 113 116 113 360C113 571 150 654 245 654Z" stroke="rgb(0,0,0)" stroke-opacity="1" stroke-width="8" fill="rgb(0,0,0)" fill-opacity="1"></path></g></g></g></g><g><g><g><g transform="matrix(1,0,0,1,258.3499755859375,88.4000015258789)"><path transform="matrix(0.017,0,0,-0.017,0,0)" d="M418 -3L418 27L366 30C311 33 301 44 301 96L301 700L60 598L67 548L217 614L217 96C217 44 206 33 152 30L96 27L96 -3C250 0 250 0 261 0C292 0 402 -3 418 -3Z" stroke="rgb(0,0,0)" stroke-opacity="1" stroke-width="8" fill="rgb(0,0,0)" fill-opacity="1"></path></g></g></g></g><g><g><g><g transform="matrix(1,0,0,1,278.04998779296875,88.4000015258789)"><path transform="matrix(0.017,0,0,-0.017,0,0)" d="M263 689C108 689 29 566 29 324C29 207 50 106 85 57C120 8 176 -20 238 -20C389 -20 465 110 465 366C465 585 400 689 263 689ZM245 654C342 654 381 556 381 316C381 103 343 15 251 15C154 15 113 116 113 360C113 571 150 654 245 654Z" stroke="rgb(0,0,0)" stroke-opacity="1" stroke-width="8" fill="rgb(0,0,0)" fill-opacity="1"></path></g></g></g></g><svg x="248" overflow="visible" y="48.99999237060547" height="43.79999923706055" width="7.650000095367432"><path d=" M 5.98 1.70 l -0.10 -0.10 q -1.09 0.03 -2.16 0.03 q -1.02 0.00 -2.14 -0.03 l -0.15 0.22 q 0.15 0.58 0.15 3.15 v 0.85 h 1.43 v -0.85 q 0.00 -1.31 0.07 -2.14 q 0.05 -0.60 1.19 -0.60 h 1.65 l 0.07 -0.09 v -0.44 z  M 1.58 5.63 v 32.55 h 1.43 v -32.55 z " style="fill:rgb(0,0,0);fill-opacity:1;stroke-width:1px;stroke:none;stroke-opacity:1;"></path><path d=" M 5.98 42.10 l -0.10 0.10 q -1.09 -0.03 -2.16 -0.03 q -1.02 0.00 -2.14 0.03 l -0.15 -0.22 q 0.15 -0.58 0.15 -3.15 v -0.85 h 1.43 v 0.85 q 0.00 1.31 0.07 2.14 q 0.05 0.60 1.19 0.60 h 1.65 l 0.07 0.09 v 0.44 z" style="fill:rgb(0,0,0);fill-opacity:1;stroke-width:1px;stroke:none;stroke-opacity:1;"></path></svg><svg x="289.25" overflow="visible" y="48.99999237060547" height="43.79999923706055" width="7.650000095367432"><path d=" M 1.57 1.70 l 0.10 -0.10 q 1.09 0.03 2.16 0.03 q 1.02 0.00 2.14 -0.03 l 0.15 0.22 q -0.15 0.58 -0.15 3.15 v 0.85 h -1.43 v -0.85 q 0.00 -1.31 -0.07 -2.14 q -0.05 -0.60 -1.19 -0.60 h -1.65 l -0.07 -0.09 v -0.44 z  M 5.97 5.63 v 32.55 h -1.43 v -32.55 z" style="fill:rgb(0,0,0);fill-opacity:1;stroke-width:1px;stroke:none;stroke-opacity:1;"></path><path d=" M 1.57 42.10 l 0.10 0.10 q 1.09 -0.03 2.16 -0.03 q 1.02 0.00 2.14 0.03 l 0.15 -0.22 q -0.15 -0.58 -0.15 -3.15 v -0.85 h -1.43 v 0.85 q 0.00 1.31 -0.07 2.14 q -0.05 0.60 -1.19 0.60 h -1.65 l -0.07 0.09 v 0.44 z" style="fill:rgb(0,0,0);fill-opacity:1;stroke-width:1px;stroke:none;stroke-opacity:1;"></path></svg><line stroke-dasharray="1" style="fill:none;stroke-width:[object Object];stroke:rgba(0, 0, 0, 0);" x1="252.75" y1="49.49999237060547" x2="272.45000076293945" y2="49.49999237060547"></line><line stroke-dasharray="1" style="fill:none;stroke-width:[object Object];stroke:rgba(0, 0, 0, 0);" x1="252.75" y1="49.49999237060547" x2="252.75" y2="70.89999198913574"></line><line stroke-dasharray="1" style="fill:none;stroke-width:[object Object];stroke:rgba(0, 0, 0, 0);" x1="272.45000076293945" y1="49.49999237060547" x2="272.45000076293945" y2="70.89999198913574"></line><line stroke-dasharray="1" style="fill:none;stroke-width:[object Object];stroke:rgba(0, 0, 0, 0);" x1="252.75" y1="70.89999198913574" x2="272.45000076293945" y2="70.89999198913574"></line><line stroke-dasharray="1" style="fill:none;stroke-width:[object Object];stroke:rgba(0, 0, 0, 0);" x1="272.45001220703125" y1="49.49999237060547" x2="292.1500129699707" y2="49.49999237060547"></line><line stroke-dasharray="1" style="fill:none;stroke-width:[object Object];stroke:rgba(0, 0, 0, 0);" x1="272.45001220703125" y1="49.49999237060547" x2="272.45001220703125" y2="70.89999198913574"></line><line stroke-dasharray="1" style="fill:none;stroke-width:[object Object];stroke:rgba(0, 0, 0, 0);" x1="292.1500129699707" y1="49.49999237060547" x2="292.1500129699707" y2="70.89999198913574"></line><line stroke-dasharray="1" style="fill:none;stroke-width:[object Object];stroke:rgba(0, 0, 0, 0);" x1="272.45001220703125" y1="70.89999198913574" x2="292.1500129699707" y2="70.89999198913574"></line><line stroke-dasharray="1" style="fill:none;stroke-width:[object Object];stroke:rgba(0, 0, 0, 0);" x1="252.75" y1="70.9000015258789" x2="272.45000076293945" y2="70.9000015258789"></line><line stroke-dasharray="1" style="fill:none;stroke-width:[object Object];stroke:rgba(0, 0, 0, 0);" x1="252.75" y1="70.9000015258789" x2="252.75" y2="92.30000114440918"></line><line stroke-dasharray="1" style="fill:none;stroke-width:[object Object];stroke:rgba(0, 0, 0, 0);" x1="272.45000076293945" y1="70.9000015258789" x2="272.45000076293945" y2="92.30000114440918"></line><line stroke-dasharray="1" style="fill:none;stroke-width:[object Object];stroke:rgba(0, 0, 0, 0);" x1="252.75" y1="92.30000114440918" x2="272.45000076293945" y2="92.30000114440918"></line><line stroke-dasharray="1" style="fill:none;stroke-width:[object Object];stroke:rgba(0, 0, 0, 0);" x1="272.45001220703125" y1="70.9000015258789" x2="292.1500129699707" y2="70.9000015258789"></line><line stroke-dasharray="1" style="fill:none;stroke-width:[object Object];stroke:rgba(0, 0, 0, 0);" x1="272.45001220703125" y1="70.9000015258789" x2="272.45001220703125" y2="92.30000114440918"></line><line stroke-dasharray="1" style="fill:none;stroke-width:[object Object];stroke:rgba(0, 0, 0, 0);" x1="292.1500129699707" y1="70.9000015258789" x2="292.1500129699707" y2="92.30000114440918"></line><line stroke-dasharray="1" style="fill:none;stroke-width:[object Object];stroke:rgba(0, 0, 0, 0);" x1="272.45001220703125" y1="92.30000114440918" x2="292.1500129699707" y2="92.30000114440918"></line></g></g></g><g><g><g><g><g><g><g transform="matrix(1,0,0,1,434.35003662109375,62.99999237060547)"><path transform="matrix(0.017,0,0,-0.017,0,0)" d="M263 689C108 689 29 566 29 324C29 207 50 106 85 57C120 8 176 -20 238 -20C389 -20 465 110 465 366C465 585 400 689 263 689ZM245 654C342 654 381 556 381 316C381 103 343 15 251 15C154 15 113 116 113 360C113 571 150 654 245 654Z" stroke="rgb(0,0,0)" stroke-opacity="1" stroke-width="8" fill="rgb(0,0,0)" fill-opacity="1"></path></g></g></g></g><g><g><g><g transform="matrix(1,0,0,1,454.04998779296875,62.99999237060547)"><path transform="matrix(0.017,0,0,-0.017,0,0)" d="M263 689C108 689 29 566 29 324C29 207 50 106 85 57C120 8 176 -20 238 -20C389 -20 465 110 465 366C465 585 400 689 263 689ZM245 654C342 654 381 556 381 316C381 103 343 15 251 15C154 15 113 116 113 360C113 571 150 654 245 654Z" stroke="rgb(0,0,0)" stroke-opacity="1" stroke-width="8" fill="rgb(0,0,0)" fill-opacity="1"></path></g></g></g></g><g><g><g><g transform="matrix(1,0,0,1,434.35003662109375,84.4000015258789)"><path transform="matrix(0.017,0,0,-0.017,0,0)" d="M418 -3L418 27L366 30C311 33 301 44 301 96L301 700L60 598L67 548L217 614L217 96C217 44 206 33 152 30L96 27L96 -3C250 0 250 0 261 0C292 0 402 -3 418 -3Z" stroke="rgb(0,0,0)" stroke-opacity="1" stroke-width="8" fill="rgb(0,0,0)" fill-opacity="1"></path></g></g></g></g><g><g><g><g transform="matrix(1,0,0,1,454.04998779296875,84.4000015258789)"><path transform="matrix(0.017,0,0,-0.017,0,0)" d="M418 -3L418 27L366 30C311 33 301 44 301 96L301 700L60 598L67 548L217 614L217 96C217 44 206 33 152 30L96 27L96 -3C250 0 250 0 261 0C292 0 402 -3 418 -3Z" stroke="rgb(0,0,0)" stroke-opacity="1" stroke-width="8" fill="rgb(0,0,0)" fill-opacity="1"></path></g></g></g></g><svg x="424.00006103515625" overflow="visible" y="44.99999237060547" height="43.79999923706055" width="7.650000095367432"><path d=" M 5.98 1.70 l -0.10 -0.10 q -1.09 0.03 -2.16 0.03 q -1.02 0.00 -2.14 -0.03 l -0.15 0.22 q 0.15 0.58 0.15 3.15 v 0.85 h 1.43 v -0.85 q 0.00 -1.31 0.07 -2.14 q 0.05 -0.60 1.19 -0.60 h 1.65 l 0.07 -0.09 v -0.44 z  M 1.58 5.63 v 32.55 h 1.43 v -32.55 z " style="fill:rgb(0,0,0);fill-opacity:1;stroke-width:1px;stroke:none;stroke-opacity:1;"></path><path d=" M 5.98 42.10 l -0.10 0.10 q -1.09 -0.03 -2.16 -0.03 q -1.02 0.00 -2.14 0.03 l -0.15 -0.22 q 0.15 -0.58 0.15 -3.15 v -0.85 h 1.43 v 0.85 q 0.00 1.31 0.07 2.14 q 0.05 0.60 1.19 0.60 h 1.65 l 0.07 0.09 v 0.44 z" style="fill:rgb(0,0,0);fill-opacity:1;stroke-width:1px;stroke:none;stroke-opacity:1;"></path></svg><svg x="465.25006103515625" overflow="visible" y="44.99999237060547" height="43.79999923706055" width="7.650000095367432"><path d=" M 1.57 1.70 l 0.10 -0.10 q 1.09 0.03 2.16 0.03 q 1.02 0.00 2.14 -0.03 l 0.15 0.22 q -0.15 0.58 -0.15 3.15 v 0.85 h -1.43 v -0.85 q 0.00 -1.31 -0.07 -2.14 q -0.05 -0.60 -1.19 -0.60 h -1.65 l -0.07 -0.09 v -0.44 z  M 5.97 5.63 v 32.55 h -1.43 v -32.55 z" style="fill:rgb(0,0,0);fill-opacity:1;stroke-width:1px;stroke:none;stroke-opacity:1;"></path><path d=" M 1.57 42.10 l 0.10 0.10 q 1.09 -0.03 2.16 -0.03 q 1.02 0.00 2.14 0.03 l 0.15 -0.22 q -0.15 -0.58 -0.15 -3.15 v -0.85 h -1.43 v 0.85 q 0.00 1.31 -0.07 2.14 q -0.05 0.60 -1.19 0.60 h -1.65 l -0.07 0.09 v 0.44 z" style="fill:rgb(0,0,0);fill-opacity:1;stroke-width:1px;stroke:none;stroke-opacity:1;"></path></svg><line stroke-dasharray="1" style="fill:none;stroke-width:[object Object];stroke:rgba(0, 0, 0, 0);" x1="428.75006103515625" y1="45.49999237060547" x2="448.4500617980957" y2="45.49999237060547"></line><line stroke-dasharray="1" style="fill:none;stroke-width:[object Object];stroke:rgba(0, 0, 0, 0);" x1="428.75006103515625" y1="45.49999237060547" x2="428.75006103515625" y2="66.89999198913574"></line><line stroke-dasharray="1" style="fill:none;stroke-width:[object Object];stroke:rgba(0, 0, 0, 0);" x1="448.4500617980957" y1="45.49999237060547" x2="448.4500617980957" y2="66.89999198913574"></line><line stroke-dasharray="1" style="fill:none;stroke-width:[object Object];stroke:rgba(0, 0, 0, 0);" x1="428.75006103515625" y1="66.89999198913574" x2="448.4500617980957" y2="66.89999198913574"></line><line stroke-dasharray="1" style="fill:none;stroke-width:[object Object];stroke:rgba(0, 0, 0, 0);" x1="448.45001220703125" y1="45.49999237060547" x2="468.1500129699707" y2="45.49999237060547"></line><line stroke-dasharray="1" style="fill:none;stroke-width:[object Object];stroke:rgba(0, 0, 0, 0);" x1="448.45001220703125" y1="45.49999237060547" x2="448.45001220703125" y2="66.89999198913574"></line><line stroke-dasharray="1" style="fill:none;stroke-width:[object Object];stroke:rgba(0, 0, 0, 0);" x1="468.1500129699707" y1="45.49999237060547" x2="468.1500129699707" y2="66.89999198913574"></line><line stroke-dasharray="1" style="fill:none;stroke-width:[object Object];stroke:rgba(0, 0, 0, 0);" x1="448.45001220703125" y1="66.89999198913574" x2="468.1500129699707" y2="66.89999198913574"></line><line stroke-dasharray="1" style="fill:none;stroke-width:[object Object];stroke:rgba(0, 0, 0, 0);" x1="428.75006103515625" y1="66.9000015258789" x2="448.4500617980957" y2="66.9000015258789"></line><line stroke-dasharray="1" style="fill:none;stroke-width:[object Object];stroke:rgba(0, 0, 0, 0);" x1="428.75006103515625" y1="66.9000015258789" x2="428.75006103515625" y2="88.30000114440918"></line><line stroke-dasharray="1" style="fill:none;stroke-width:[object Object];stroke:rgba(0, 0, 0, 0);" x1="448.4500617980957" y1="66.9000015258789" x2="448.4500617980957" y2="88.30000114440918"></line><line stroke-dasharray="1" style="fill:none;stroke-width:[object Object];stroke:rgba(0, 0, 0, 0);" x1="428.75006103515625" y1="88.30000114440918" x2="448.4500617980957" y2="88.30000114440918"></line><line stroke-dasharray="1" style="fill:none;stroke-width:[object Object];stroke:rgba(0, 0, 0, 0);" x1="448.45001220703125" y1="66.9000015258789" x2="468.1500129699707" y2="66.9000015258789"></line><line stroke-dasharray="1" style="fill:none;stroke-width:[object Object];stroke:rgba(0, 0, 0, 0);" x1="448.45001220703125" y1="66.9000015258789" x2="448.45001220703125" y2="88.30000114440918"></line><line stroke-dasharray="1" style="fill:none;stroke-width:[object Object];stroke:rgba(0, 0, 0, 0);" x1="468.1500129699707" y1="66.9000015258789" x2="468.1500129699707" y2="88.30000114440918"></line><line stroke-dasharray="1" style="fill:none;stroke-width:[object Object];stroke:rgba(0, 0, 0, 0);" x1="448.45001220703125" y1="88.30000114440918" x2="468.1500129699707" y2="88.30000114440918"></line></g></g></g><g><g><g><g transform="matrix(1,0,0,1,195,24.79999542236328)"><path transform="matrix(0.015,0,0,-0.015,0,0)" d="M126 722L135 362L196 362L196 363L204 722ZM294 722L302 363L302 362L363 362L372 722ZM595 0L843 0C859 0 875 0 891 2C1032 18 1166 149 1166 342C1166 462 1112 582 1013 647C949 689 895 694 841 694L595 694ZM682 56L682 638L825 638C993 638 1079 502 1079 341C1079 272 1062 203 1020 148C951 57 857 56 825 56ZM1303 0L1378 0L1378 445L1303 445ZM1296 590L1386 590L1386 679L1296 679ZM1505 113C1505 67 1535 -11 1619 -11C1729 -11 1784 34 1785 35L1785 0L1861 0L1861 305C1856 389 1790 461 1695 461C1632 461 1586 445 1538 417L1544 350C1577 373 1619 401 1694 401C1707 401 1733 400 1757 371C1782 341 1782 307 1783 279L1783 245C1680 244 1505 219 1505 113ZM1578 114C1578 177 1711 192 1783 193L1783 130C1783 65 1714 51 1671 51C1617 51 1578 78 1578 114ZM1968 -71C1968 -148 2067 -206 2190 -206C2312 -206 2412 -148 2412 -70C2412 -58 2410 -45 2407 -33C2379 67 2257 69 2191 69L2116 69C2068 69 2060 103 2060 122C2060 129 2061 139 2071 159C2093 145 2118 129 2162 129C2255 129 2322 207 2322 292C2322 335 2309 364 2283 399L2292 391C2310 392 2341 395 2367 395C2387 395 2406 394 2426 392L2415 455C2361 455 2308 445 2258 424L2260 422C2227 445 2199 455 2162 455C2080 455 2003 389 2003 292C2003 272 2006 232 2036 193L2036 192C2018 168 2007 141 2007 108C2007 76 2016 55 2032 32C1993 9 1968 -30 1968 -71ZM2038 -71C2038 -42 2060 -8 2101 -4L2130 -3L2193 -3C2301 -3 2342 -31 2342 -72C2342 -118 2270 -149 2189 -149C2134 -149 2038 -127 2038 -71ZM2073 292C2073 377 2126 398 2162 398C2216 398 2252 358 2252 293C2252 208 2199 187 2163 187C2109 187 2073 227 2073 292ZM2471 221C2471 85 2576 -11 2690 -11C2804 -11 2910 84 2910 220C2910 345 2818 461 2690 461C2572 461 2471 357 2471 221ZM2549 231C2549 352 2626 399 2690 399C2754 399 2831 353 2831 231C2831 106 2757 53 2690 53C2624 53 2549 105 2549 231ZM3021 0L3099 0L3099 240C3099 314 3124 394 3201 394C3299 394 3299 319 3299 281L3299 0L3377 0L3377 288C3377 358 3368 455 3240 455C3152 455 3108 398 3094 380L3094 450L3021 450ZM3502 113C3502 67 3532 -11 3616 -11C3726 -11 3781 34 3782 35L3782 0L3858 0L3858 305C3853 389 3787 461 3692 461C3629 461 3583 445 3535 417L3541 350C3574 373 3616 401 3691 401C3704 401 3730 400 3754 371C3779 341 3779 307 3780 279L3780 245C3677 244 3502 219 3502 113ZM3575 114C3575 177 3708 192 3780 193L3780 130C3780 65 3711 51 3668 51C3614 51 3575 78 3575 114ZM4019 0L4094 0L4094 722L4019 722ZM4303 722L4312 362L4373 362L4373 363L4381 722ZM4471 722L4479 363L4479 362L4540 362L4549 722ZM5037 386L5111 386L5111 0L5186 0L5186 386L5296 386L5296 445L5183 445L5183 581C5183 658 5244 672 5276 672C5308 672 5334 664 5357 655L5357 722C5334 728 5309 733 5278 733C5197 733 5110 673 5110 542C5110 534 5111 526 5111 518L5111 445L5037 445ZM5349 226C5349 102 5436 -11 5567 -11C5630 -11 5682 11 5725 40L5719 106C5675 74 5630 51 5567 51C5491 51 5423 117 5419 220L5729 220L5729 249C5720 420 5622 461 5551 461C5445 461 5349 360 5349 226ZM5424 275C5435 324 5475 399 5551 399C5580 399 5655 386 5672 275ZM5803 113C5803 67 5833 -11 5917 -11C6027 -11 6082 34 6083 35L6083 0L6159 0L6159 305C6154 389 6088 461 5993 461C5930 461 5884 445 5836 417L5842 350C5875 373 5917 401 5992 401C6005 401 6031 400 6055 371C6080 341 6080 307 6081 279L6081 245C5978 244 5803 219 5803 113ZM5876 114C5876 177 6009 192 6081 193L6081 130C6081 65 6012 51 5969 51C5915 51 5876 78 5876 114ZM6257 386L6341 386L6341 117C6341 7 6390 -11 6423 -11C6468 -11 6519 -1 6571 27L6555 86C6541 76 6510 53 6467 53C6415 53 6413 112 6413 140L6413 386L6554 386L6554 445L6413 445L6413 571L6343 571L6343 445L6257 445ZM6680 122C6680 70 6680 -11 6785 -11C6840 -11 6908 3 6960 48L6960 0L7036 0L7036 445L6958 445L6958 165C6958 155 6958 146 6957 136C6952 93 6913 45 6838 45C6770 45 6759 67 6758 110L6758 445L6680 445ZM7198 0L7273 0L7273 206C7273 352 7384 386 7443 388L7443 455C7337 453 7284 385 7268 360L7268 450L7198 450ZM7493 226C7493 102 7580 -11 7711 -11C7774 -11 7826 11 7869 40L7863 106C7819 74 7774 51 7711 51C7635 51 7567 117 7563 220L7873 220L7873 249C7864 420 7766 461 7695 461C7589 461 7493 360 7493 226ZM7568 275C7579 324 7619 399 7695 399C7724 399 7799 386 7816 275ZM8316 0L8394 0L8394 240C8394 314 8419 394 8496 394C8594 394 8594 319 8594 281L8594 0L8672 0L8672 240C8672 314 8697 394 8774 394C8872 394 8871 281 8871 281L8871 0L8950 0L8950 288C8950 346 8947 455 8813 455C8722 455 8677 394 8662 374C8648 412 8618 455 8535 455C8447 455 8403 398 8389 380L8389 450L8316 450ZM9074 113C9074 67 9104 -11 9188 -11C9298 -11 9353 34 9354 35L9354 0L9430 0L9430 305C9425 389 9359 461 9264 461C9201 461 9155 445 9107 417L9113 350C9146 373 9188 401 9263 401C9276 401 9302 400 9326 371C9351 341 9351 307 9352 279L9352 245C9249 244 9074 219 9074 113ZM9147 114C9147 177 9280 192 9352 193L9352 130C9352 65 9283 51 9240 51C9186 51 9147 78 9147 114ZM9591 -195L9669 -195L9669 46C9702 15 9745 -11 9804 -11C9901 -11 9990 83 9990 224C9990 343 9927 455 9832 455C9798 455 9730 448 9666 396L9666 445L9591 445ZM9669 126L9669 334C9675 341 9709 391 9775 391C9857 391 9911 310 9911 222C9911 116 9836 50 9766 50C9707 50 9669 102 9669 126Z" stroke="rgb(0,0,0)" stroke-opacity="1" stroke-width="8" fill="rgb(0,0,0)" fill-opacity="1"></path></g></g></g></g><g><g><g><g transform="matrix(1,0,0,1,375,24.79999542236328)"><path transform="matrix(0.015,0,0,-0.015,0,0)" d="M126 722L135 362L196 362L196 363L204 722ZM294 722L302 363L302 362L363 362L372 722ZM566 347C566 144 708 -22 891 -22C953 -22 1024 -10 1099 26L1099 299L888 299L888 237L1021 237L1021 63C977 51 943 42 892 42C760 42 656 177 656 348C656 506 751 652 893 652C985 652 1032 618 1076 585L1091 668C1033 697 978 716 891 716C710 716 566 552 566 347ZM1248 0L1323 0L1323 206C1323 352 1434 386 1493 388L1493 455C1387 453 1334 385 1318 360L1318 450L1248 450ZM1543 226C1543 102 1630 -11 1761 -11C1824 -11 1876 11 1919 40L1913 106C1869 74 1824 51 1761 51C1685 51 1617 117 1613 220L1923 220L1923 249C1914 420 1816 461 1745 461C1639 461 1543 360 1543 226ZM1618 275C1629 324 1669 399 1745 399C1774 399 1849 386 1866 275ZM1987 226C1987 102 2074 -11 2205 -11C2268 -11 2320 11 2363 40L2357 106C2313 74 2268 51 2205 51C2129 51 2061 117 2057 220L2367 220L2367 249C2358 420 2260 461 2189 461C2083 461 1987 360 1987 226ZM2062 275C2073 324 2113 399 2189 399C2218 399 2293 386 2310 275ZM2477 0L2555 0L2555 240C2555 314 2580 394 2657 394C2755 394 2755 319 2755 281L2755 0L2833 0L2833 288C2833 358 2824 455 2696 455C2608 455 2564 398 2550 380L2550 450L2477 450ZM3040 722L3049 362L3110 362L3110 363L3118 722ZM3208 722L3216 363L3216 362L3277 362L3286 722ZM3774 386L3848 386L3848 0L3923 0L3923 386L4033 386L4033 445L3920 445L3920 581C3920 658 3981 672 4013 672C4045 672 4071 664 4094 655L4094 722C4071 728 4046 733 4015 733C3934 733 3847 673 3847 542C3847 534 3848 526 3848 518L3848 445L3774 445ZM4086 226C4086 102 4173 -11 4304 -11C4367 -11 4419 11 4462 40L4456 106C4412 74 4367 51 4304 51C4228 51 4160 117 4156 220L4466 220L4466 249C4457 420 4359 461 4288 461C4182 461 4086 360 4086 226ZM4161 275C4172 324 4212 399 4288 399C4317 399 4392 386 4409 275ZM4540 113C4540 67 4570 -11 4654 -11C4764 -11 4819 34 4820 35L4820 0L4896 0L4896 305C4891 389 4825 461 4730 461C4667 461 4621 445 4573 417L4579 350C4612 373 4654 401 4729 401C4742 401 4768 400 4792 371C4817 341 4817 307 4818 279L4818 245C4715 244 4540 219 4540 113ZM4613 114C4613 177 4746 192 4818 193L4818 130C4818 65 4749 51 4706 51C4652 51 4613 78 4613 114ZM4994 386L5078 386L5078 117C5078 7 5127 -11 5160 -11C5205 -11 5256 -1 5308 27L5292 86C5278 76 5247 53 5204 53C5152 53 5150 112 5150 140L5150 386L5291 386L5291 445L5150 445L5150 571L5080 571L5080 445L4994 445ZM5417 122C5417 70 5417 -11 5522 -11C5577 -11 5645 3 5697 48L5697 0L5773 0L5773 445L5695 445L5695 165C5695 155 5695 146 5694 136C5689 93 5650 45 5575 45C5507 45 5496 67 5495 110L5495 445L5417 445ZM5935 0L6010 0L6010 206C6010 352 6121 386 6180 388L6180 455C6074 453 6021 385 6005 360L6005 450L5935 450ZM6230 226C6230 102 6317 -11 6448 -11C6511 -11 6563 11 6606 40L6600 106C6556 74 6511 51 6448 51C6372 51 6304 117 6300 220L6610 220L6610 249C6601 420 6503 461 6432 461C6326 461 6230 360 6230 226ZM6305 275C6316 324 6356 399 6432 399C6461 399 6536 386 6553 275ZM7053 0L7131 0L7131 240C7131 314 7156 394 7233 394C7331 394 7331 319 7331 281L7331 0L7409 0L7409 240C7409 314 7434 394 7511 394C7609 394 7608 281 7608 281L7608 0L7687 0L7687 288C7687 346 7684 455 7550 455C7459 455 7414 394 7399 374C7385 412 7355 455 7272 455C7184 455 7140 398 7126 380L7126 450L7053 450ZM7811 113C7811 67 7841 -11 7925 -11C8035 -11 8090 34 8091 35L8091 0L8167 0L8167 305C8162 389 8096 461 8001 461C7938 461 7892 445 7844 417L7850 350C7883 373 7925 401 8000 401C8013 401 8039 400 8063 371C8088 341 8088 307 8089 279L8089 245C7986 244 7811 219 7811 113ZM7884 114C7884 177 8017 192 8089 193L8089 130C8089 65 8020 51 7977 51C7923 51 7884 78 7884 114ZM8328 -195L8406 -195L8406 46C8439 15 8482 -11 8541 -11C8638 -11 8727 83 8727 224C8727 343 8664 455 8569 455C8535 455 8467 448 8403 396L8403 445L8328 445ZM8406 126L8406 334C8412 341 8446 391 8512 391C8594 391 8648 310 8648 222C8648 116 8573 50 8503 50C8444 50 8406 102 8406 126Z" stroke="rgb(0,0,0)" stroke-opacity="1" stroke-width="8" fill="rgb(0,0,0)" fill-opacity="1"></path></g></g></g></g></svg>
</svg>
