<svg xmlns="http://www.w3.org/2000/svg" xmlns:xlink="http://www.w3.org/1999/xlink" x="0" y="0" width="194" height="218" style="
        width:194px;
        height:218px;
        background: #FFF;
        fill: none;
">
        
        
        <svg xmlns="http://www.w3.org/2000/svg" class="role-diagram-draw-area"><g class="shapes-region" style="stroke: black; fill: none;"><g class="arrow-line"><path class="connection real" stroke-dasharray="" d="  M32.01,113.55 L95.99,49.57" style="stroke: rgb(0, 0, 0); stroke-width: 1; fill: none; fill-opacity: 1;"/><g stroke="#000" transform="matrix(-0.7071067811865479,0.7071067811865471,-0.7071067811865471,-0.7071067811865479,97.39999999999999,48.15999908447266)" style="stroke: rgb(0, 0, 0); stroke-width: 1;"><path d=" M6.56,-1.97 Q2.98,-0.27 0,0 Q2.98,0.27 6.56,1.97"/></g><g stroke="#000" transform="matrix(0.7071067811865474,-0.7071067811865477,0.7071067811865477,0.7071067811865474,30.59999999999998,114.95999908447266)" style="stroke: rgb(0, 0, 0); stroke-width: 1;"><path d=" M6.56,-1.97 Q2.98,-0.27 0,0 Q2.98,0.27 6.56,1.97"/></g></g><g class="arrow-line"><path class="connection real" stroke-dasharray="" d="  M36.2,187.76 L91.6,187.76" style="stroke: rgb(0, 0, 0); stroke-width: 1; fill: none; fill-opacity: 1;"/><g stroke="#000" transform="matrix(-1,1.2246467991473532e-16,-1.2246467991473532e-16,-1,93.6,187.75999908447267)" style="stroke: rgb(0, 0, 0); stroke-width: 1;"><path d=" M6.56,-1.97 Q2.98,-0.27 0,0 Q2.98,0.27 6.56,1.97"/></g><g stroke="#000" transform="matrix(1,0,0,1,34.2,187.75999908447267)" style="stroke: rgb(0, 0, 0); stroke-width: 1;"><path d=" M6.56,-1.97 Q2.98,-0.27 0,0 Q2.98,0.27 6.56,1.97"/></g></g><g class="arrow-line"><path class="connection real" stroke-dasharray="" d="  M25,128.16 L25,178.16" style="stroke: rgb(0, 0, 0); stroke-width: 1; fill: none; fill-opacity: 1;"/><g stroke="#000" transform="matrix(-1.8369701987210297e-16,-1,1,-1.8369701987210297e-16,25,180.16000061035157)" style="stroke: rgb(0, 0, 0); stroke-width: 1;"><path d=" M6.56,-1.97 Q2.98,-0.27 0,0 Q2.98,0.27 6.56,1.97"/></g><g stroke="#000" transform="matrix(6.123233995736766e-17,1,-1,6.123233995736766e-17,25,126.15999908447267)" style="stroke: rgb(0, 0, 0); stroke-width: 1;"><path d=" M6.56,-1.97 Q2.98,-0.27 0,0 Q2.98,0.27 6.56,1.97"/></g></g><g class="composite-shape"><path class="real" d=" M107.39,49.7 L170.8,49.7 L170.8,107.31 L107.39,107.31 Z" style="stroke-width: 1; stroke: rgb(0, 0, 0); fill: rgb(153, 153, 153); fill-opacity: 1;"/></g><g class="composite-shape"><path class="real" d=" M102.77,54.08 L166.18,54.08 L166.18,111.69 L102.77,111.69 Z" style="stroke-width: 1; stroke: rgb(0, 0, 0); fill: rgb(153, 153, 153); fill-opacity: 1;"/></g><g class="composite-shape"><path class="real" d=" M97.91,59.22 L161.32,59.22 L161.32,116.83 L97.91,116.83 Z" style="stroke-width: 1; stroke: rgb(0, 0, 0); fill: rgb(53, 53, 53); fill-opacity: 1;"/></g><g class="composite-shape"><path class="real" d=" M92.2,64.08 L155.61,64.08 L155.61,121.69 L92.2,121.69 Z" style="stroke-width: 1; stroke: rgb(0, 0, 0); fill: rgb(153, 153, 153); fill-opacity: 1;"/></g><g class="composite-shape"><path class="real" d=" M87.06,69.79 L150.46,69.79 L150.46,127.4 L87.06,127.4 Z" style="stroke-width: 1; stroke: rgb(0, 0, 0); fill: rgb(153, 153, 153); fill-opacity: 1;"/></g><g class="composite-shape"><path class="real" d=" M81.34,75.22 L144.75,75.22 L144.75,132.83 L81.34,132.83 Z" style="stroke-width: 1; stroke: rgb(0, 0, 0); fill: rgb(153, 153, 153); fill-opacity: 1;"/></g><g class="composite-shape"><path class="real" d=" M75.91,80.94 L139.32,80.94 L139.32,138.54 L75.91,138.54 Z" style="stroke-width: 1; stroke: rgb(0, 0, 0); fill: rgb(153, 153, 153); fill-opacity: 1;"/></g><g class="composite-shape"><path class="real" d=" M69.91,87.22 L133.32,87.22 L133.32,144.83 L69.91,144.83 Z" style="stroke-width: 1; stroke: rgb(0, 0, 0); fill: rgb(153, 153, 153); fill-opacity: 1;"/></g><g class="composite-shape"><path class="real" d=" M63.91,93.51 L127.32,93.51 L127.32,151.11 L63.91,151.11 Z" style="stroke-width: 1; stroke: rgb(0, 0, 0); fill: rgb(153, 153, 153); fill-opacity: 1;"/></g><g class="composite-shape"><path class="real" d=" M58.2,99.22 L121.61,99.22 L121.61,156.83 L58.2,156.83 Z" style="stroke-width: 1; stroke: rgb(0, 0, 0); fill: rgb(53, 53, 53); fill-opacity: 1;"/></g><g class="composite-shape"><path class="real" d=" M52.49,105.86 L115.89,105.86 L115.89,163.46 L52.49,163.46 Z" style="stroke-width: 1; stroke: rgb(0, 0, 0); fill: rgb(153, 153, 153); fill-opacity: 1;"/></g><g class="composite-shape"><path class="real" d=" M46.77,112.14 L110.18,112.14 L110.18,169.75 L46.77,169.75 Z" style="stroke-width: 1; stroke: rgb(0, 0, 0); fill: rgb(153, 153, 153); fill-opacity: 1;"/></g><g class="composite-shape"><path class="real" d=" M40.2,117.86 L103.61,117.86 L103.61,175.46 L40.2,175.46 Z" style="stroke-width: 1; stroke: rgb(0, 0, 0); fill: rgb(153, 153, 153); fill-opacity: 1;"/></g><g class="composite-shape"><path class="real" d=" M33,124.09 L96.41,124.09 L96.41,181.7 L33,181.7 Z" style="stroke-width: 1; stroke: rgb(0, 0, 0); fill: rgb(153, 153, 153); fill-opacity: 1;"/></g><g/></g><g/><g/><g/></svg>
        <svg xmlns="http://www.w3.org/2000/svg" xmlns:xlink="http://www.w3.org/1999/xlink" width="192" height="216" style="width:192px;height:216px;font-family:Asana-Math, Asana;background:#FFF;"><g><g><g><g transform="matrix(1,0,0,1,56.79998779296875,201.6000213623047)"><path transform="matrix(0.017,0,0,-0.017,0,0)" d="M167 420C188 420 201 421 226 424C171 350 72 266 72 126C72 44 107 -11 160 -11C224 -11 276 44 350 187C341 143 338 118 338 95C338 32 367 -11 412 -11C546 -11 699 238 699 384C699 441 673 482 637 482C624 482 612 478 604 470L554 423L565 404C574 410 583 413 592 413C619 413 635 390 635 350C635 205 538 39 453 39C424 39 403 79 403 134C403 181 412 247 424 290L476 474L469 482L395 460L366 311C354 249 340 209 311 155C271 80 233 39 203 39C168 39 145 78 145 136C145 255 186 352 285 464L275 482C255 473 242 470 214 470C186 470 144 472 115 475L103 476C97 477 92 477 91 477C79 477 70 475 59 470C45 443 34 407 21 352L43 352L60 394C67 411 87 422 111 422C145 422 128 420 167 420Z" stroke="rgb(0,0,0)" stroke-opacity="1" stroke-width="8" fill="rgb(0,0,0)" fill-opacity="1"></path></g></g></g></g><g><g><g><g transform="matrix(1,0,0,1,2.20001220703125,159.1999969482422)"><path transform="matrix(0.017,0,0,-0.017,0,0)" d="M236 722L224 733C179 711 138 697 64 691L60 670L108 670C126 670 142 667 142 647C142 641 142 632 140 622L98 388C78 272 36 80 10 2L17 -9L86 7C94 64 108 164 148 236C193 317 296 414 338 414C349 414 360 407 360 393C360 375 355 342 345 303L294 107C288 85 281 55 281 31C281 6 291 -9 312 -9C344 -9 412 41 471 85L461 103L435 86C412 71 386 56 374 56C367 56 361 65 361 76C361 88 364 101 368 116L432 372C438 398 443 423 443 447C443 464 437 482 411 482C376 482 299 437 231 374C198 343 172 308 144 273L140 275Z" stroke="rgb(0,0,0)" stroke-opacity="1" stroke-width="8" fill="rgb(0,0,0)" fill-opacity="1"></path></g></g></g></g><g><g><g><g transform="matrix(1,0,0,1,48,77.80000305175781)"><path transform="matrix(0.017,0,0,-0.017,0,0)" d="M371 664L374 692L350 692L260 689C244 689 226 689 183 690L119 692L116 664L163 662C187 661 198 653 198 635C198 621 195 592 189 559L116 125C99 33 98 32 58 28L17 25L13 -3L55 -2C103 -1 126 0 145 0L242 -3L268 -3L271 25L222 28C195 30 186 37 186 57C186 63 187 74 188 78L231 340C381 169 404 140 509 -3L578 0C614 -1 620 -2 646 -3L646 27L626 27C603 27 583 39 562 65L316 367L608 640C624 655 645 665 662 665L683 665L683 692L660 691C639 690 623 689 615 689C605 689 589 690 568 691L548 692L548 663C548 655 538 642 510 614C466 569 297 403 233 353L278 613C285 651 292 658 329 661Z" stroke="rgb(0,0,0)" stroke-opacity="1" stroke-width="8" fill="rgb(0,0,0)" fill-opacity="1"></path></g></g></g></g><g><g><g><g transform="matrix(1,0,0,1,125.7874755859375,172.75001525878906)"><path transform="matrix(0.017,0,0,-0.017,0,0)" d="M567 55C567 39 552 30 524 28L480 25L480 -3C582 0 582 0 602 0C622 0 622 0 724 -3L724 25L698 28C651 35 650 35 642 80L555 705L509 705L136 112C100 56 82 40 48 32L28 27L28 -3C120 0 120 0 140 0C159 0 161 0 247 -3L247 25L195 28C179 29 164 38 164 47C164 55 171 69 190 102L292 277L538 277L563 89L563 86C563 84 567 69 567 55ZM496 601L533 313L317 313Z" stroke="rgb(0,0,0)" stroke-opacity="1" stroke-width="8" fill="rgb(0,0,0)" fill-opacity="1"></path></g></g><g><g><g><g><g transform="matrix(1,0,0,1,139.0625,175.76250305175782)"><path transform="matrix(0.0119,0,0,-0.0119,0,0)" d="M34 388L41 368L73 389C110 412 113 414 120 414C130 414 138 404 138 391C138 384 134 361 130 347L64 107C56 76 51 49 51 30C51 6 62 -9 81 -9C107 -9 143 12 241 85L231 103L205 86C176 67 153 56 144 56C137 56 131 66 131 76C131 86 133 95 138 116L215 420C219 437 221 448 221 456C221 473 212 482 196 482C174 482 137 461 62 408ZM228 712C199 712 170 679 170 645C170 620 185 604 209 604C240 604 264 633 264 671C264 695 249 712 228 712Z" stroke="rgb(0,0,0)" stroke-opacity="1" stroke-width="8" fill="rgb(0,0,0)" fill-opacity="1"></path></g></g></g></g></g></g></g><g><g><g><g transform="matrix(1,0,0,1,161.7874755859375,136.75001525878906)"><path transform="matrix(0.017,0,0,-0.017,0,0)" d="M567 55C567 39 552 30 524 28L480 25L480 -3C582 0 582 0 602 0C622 0 622 0 724 -3L724 25L698 28C651 35 650 35 642 80L555 705L509 705L136 112C100 56 82 40 48 32L28 27L28 -3C120 0 120 0 140 0C159 0 161 0 247 -3L247 25L195 28C179 29 164 38 164 47C164 55 171 69 190 102L292 277L538 277L563 89L563 86C563 84 567 69 567 55ZM496 601L533 313L317 313Z" stroke="rgb(0,0,0)" stroke-opacity="1" stroke-width="8" fill="rgb(0,0,0)" fill-opacity="1"></path></g></g><g><g><g><g><g transform="matrix(1,0,0,1,175.0625,139.76250305175782)"><path transform="matrix(0.0119,0,0,-0.0119,0,0)" d="M194 351L94 -144C83 -196 65 -231 47 -231C33 -231 15 -225 -6 -212L-14 -269C-4 -274 9 -276 24 -276C64 -276 104 -233 140 -152C160 -107 174 -57 202 70L278 420C282 438 284 451 284 457C284 473 275 482 259 482C237 482 200 461 125 408L97 388L104 368L136 389C173 412 176 414 183 414C193 414 201 404 201 391C201 382 194 356 194 351ZM285 712C256 712 227 679 227 645C227 620 242 604 266 604C297 604 321 633 321 671C321 695 306 712 285 712Z" stroke="rgb(0,0,0)" stroke-opacity="1" stroke-width="8" fill="rgb(0,0,0)" fill-opacity="1"></path></g></g></g></g></g></g></g><g><g><g><g transform="matrix(1,0,0,1,110.5,23.600006103515625)"><path transform="matrix(0.017,0,0,-0.017,0,0)" d="M286 646L392 650C454 650 494 641 495 626L503 537L527 537C530 600 537 651 548 689C526 691 498 692 481 692L440 691L275 689L246 689C221 689 181 690 143 691L94 692L91 664L147 662C171 661 182 652 182 635C182 621 178 589 173 559L98 125C81 33 81 32 40 28L4 25L0 -3L34 -2C74 -1 106 0 127 0C145 0 174 -1 213 -2L265 -3L268 25L204 28C177 29 168 37 168 57C168 63 169 74 170 78L206 301L323 301C350 301 381 300 429 298L455 297L474 342L470 349C389 345 329 343 251 343L214 343L260 614C263 630 264 635 269 646Z" stroke="rgb(0,0,0)" stroke-opacity="1" stroke-width="8" fill="rgb(0,0,0)" fill-opacity="1"></path></g></g><g><g><g><g><g transform="matrix(1,0,0,1,120.9124755859375,16.9)"><path transform="matrix(0.0119,0,0,-0.0119,0,0)" d="M455 632C455 682 416 713 367 713C205 713 163 432 133 325L16 245L26 227L123 292C106 234 75 163 75 101C75 37 113 -13 180 -13C267 -13 332 73 367 143L348 151C322 101 272 26 208 26C167 26 146 59 146 97C146 157 201 306 218 363C298 417 455 523 455 632ZM425 625C425 538 292 441 228 395L274 549C288 596 316 674 375 674C404 674 425 656 425 625Z" stroke="rgb(0,0,0)" stroke-opacity="1" stroke-width="8" fill="rgb(0,0,0)" fill-opacity="1"></path></g></g></g></g></g></g></g></svg>
</svg>
